<svg width="24" height="25" viewBox="0 0 24 25" fill="none" xmlns="http://www.w3.org/2000/svg">
<g clip-path="url(#clip0_11_1176)">
<g clip-path="url(#clip1_11_1176)">
<g clip-path="url(#clip2_11_1176)">
<path fill-rule="evenodd" clip-rule="evenodd" d="M11.9972 3.7251C9.55368 3.7251 9.24729 3.73545 8.28764 3.77924C7.33 3.82292 6.67596 3.97503 6.10368 4.19745C5.51204 4.42735 5.01029 4.73499 4.51007 5.23517C4.00989 5.73538 3.70225 6.23713 3.47236 6.82878C3.24993 7.40106 3.09782 8.0551 3.05414 9.01274C3.01036 9.97238 3 10.2788 3 12.7223C3 15.1657 3.01036 15.4721 3.05414 16.4318C3.09782 17.3894 3.24993 18.0435 3.47236 18.6157C3.70225 19.2074 4.00989 19.7091 4.51007 20.2093C5.01029 20.7095 5.51204 21.0172 6.10368 21.2471C6.67596 21.4695 7.33 21.6216 8.28764 21.6653C9.24729 21.7091 9.55368 21.7194 11.9972 21.7194C14.4406 21.7194 14.747 21.7091 15.7067 21.6653C16.6643 21.6216 17.3184 21.4695 17.8906 21.2471C18.4823 21.0172 18.984 20.7095 19.4842 20.2093C19.9844 19.7091 20.2921 19.2074 20.522 18.6157C20.7444 18.0435 20.8965 17.3894 20.9402 16.4318C20.984 15.4721 20.9943 15.1657 20.9943 12.7223C20.9943 10.2788 20.984 9.97238 20.9402 9.01274C20.8965 8.0551 20.7444 7.40106 20.522 6.82878C20.2921 6.23713 19.9844 5.73538 19.4842 5.23517C18.984 4.73499 18.4823 4.42735 17.8906 4.19745C17.3184 3.97503 16.6643 3.82292 15.7067 3.77924C14.747 3.73545 14.4406 3.7251 11.9972 3.7251ZM11.9972 5.3462C14.3995 5.3462 14.6841 5.35538 15.6328 5.39867C16.51 5.43867 16.9864 5.58524 17.3034 5.70845C17.7234 5.87167 18.0231 6.06663 18.3379 6.38149C18.6528 6.69631 18.8477 6.99603 19.011 7.41599C19.1342 7.73303 19.2807 8.20942 19.3207 9.08663C19.364 10.0353 19.3732 10.3199 19.3732 12.7223C19.3732 15.1246 19.364 15.4092 19.3207 16.3579C19.2807 17.2351 19.1342 17.7115 19.011 18.0285C18.8477 18.4485 18.6528 18.7482 18.3379 19.063C18.0231 19.3779 17.7234 19.5728 17.3034 19.7361C16.9864 19.8593 16.51 20.0058 15.6328 20.0458C14.6842 20.0891 14.3997 20.0983 11.9972 20.0983C9.59464 20.0983 9.31014 20.0891 8.36154 20.0458C7.48432 20.0058 7.00793 19.8593 6.69089 19.7361C6.27093 19.5728 5.97121 19.3779 5.65639 19.063C5.34157 18.7482 5.14657 18.4485 4.98336 18.0285C4.86014 17.7115 4.71357 17.2351 4.67357 16.3579C4.63029 15.4092 4.62111 15.1246 4.62111 12.7223C4.62111 10.3199 4.63029 10.0353 4.67357 9.08663C4.71357 8.20942 4.86014 7.73303 4.98336 7.41599C5.14657 6.99603 5.34154 6.69631 5.65639 6.38149C5.97121 6.06663 6.27093 5.87167 6.69089 5.70845C7.00793 5.58524 7.48432 5.43867 8.36154 5.39867C9.31025 5.35538 9.59482 5.3462 11.9972 5.3462Z" fill="#1C2751"/>
<path fill-rule="evenodd" clip-rule="evenodd" d="M11.9972 15.7213C10.3408 15.7213 8.99812 14.3786 8.99812 12.7222C8.99812 11.0659 10.3408 9.72316 11.9972 9.72316C13.6535 9.72316 14.9962 11.0659 14.9962 12.7222C14.9962 14.3786 13.6535 15.7213 11.9972 15.7213ZM11.9972 8.10205C9.44551 8.10205 7.37701 10.1706 7.37701 12.7222C7.37701 15.2739 9.44551 17.3424 11.9972 17.3424C14.5488 17.3424 16.6173 15.2739 16.6173 12.7222C16.6173 10.1706 14.5488 8.10205 11.9972 8.10205Z" fill="#1C2751"/>
<path fill-rule="evenodd" clip-rule="evenodd" d="M17.8795 7.91952C17.8795 8.51581 17.3961 8.99917 16.7999 8.99917C16.2036 8.99917 15.7202 8.51581 15.7202 7.91952C15.7202 7.32324 16.2036 6.83984 16.7999 6.83984C17.3961 6.83984 17.8795 7.32324 17.8795 7.91952Z" fill="#1C2751"/>
</g>
</g>
</g>
<defs>
<clipPath id="clip0_11_1176">
<rect width="24" height="24" fill="white" transform="translate(0 0.725098)"/>
</clipPath>
<clipPath id="clip1_11_1176">
<rect width="24" height="24" fill="white" transform="translate(0 0.725098)"/>
</clipPath>
<clipPath id="clip2_11_1176">
<rect width="24" height="24" fill="white" transform="translate(0 0.725098)"/>
</clipPath>
</defs>
</svg>
