<svg width="24" height="25" viewBox="0 0 24 25" fill="none" xmlns="http://www.w3.org/2000/svg">
<g clip-path="url(#clip0_11_1187)">
<g clip-path="url(#clip1_11_1187)">
<g clip-path="url(#clip2_11_1187)">
<path d="M19.8 4.9251C19.05 4.1751 18 3.7251 16.875 3.7251H12H7.125C6 3.7251 4.95 4.1751 4.2 4.9251C3.45 5.6751 3 6.7251 3 7.8501V12.7251V17.6001C3 18.7251 3.45 19.7751 4.2 20.5251C4.95 21.2751 6 21.7251 7.125 21.7251H12H16.875C18 21.7251 19.05 21.2751 19.8 20.5251C20.55 19.7751 21 18.7251 21 17.6001V12.7251V7.8501C21 6.7251 20.55 5.6751 19.8 4.9251ZM17.625 11.5251C16.5 11.5251 15.375 11.1501 14.55 10.5501V15.0501C14.55 17.3001 12.75 19.1751 10.425 19.1751C9.6 19.1751 8.775 18.9501 8.175 18.5001C7.05 17.7501 6.375 16.5501 6.375 15.1251C6.375 12.8751 8.175 11.0001 10.5 11.0001C10.65 11.0001 10.875 11.0001 11.025 11.0751V11.6001V13.4001C10.875 13.3251 10.65 13.3251 10.425 13.3251C9.375 13.3251 8.55 14.1501 8.55 15.2001C8.55 15.9501 9 16.5501 9.6 16.8501C9.825 17.0001 10.125 17.0751 10.425 17.0751C11.475 17.0751 12.3 16.2501 12.3 15.2001V6.2001H14.55V6.5001C14.55 6.5751 14.55 6.6501 14.55 6.7251C14.7 7.6251 15.225 8.3751 15.975 8.8251C16.5 9.1251 17.025 9.2751 17.625 9.2751V11.5251Z" fill="#1C2751"/>
</g>
</g>
</g>
<defs>
<clipPath id="clip0_11_1187">
<rect width="24" height="24" fill="white" transform="translate(0 0.725098)"/>
</clipPath>
<clipPath id="clip1_11_1187">
<rect width="24" height="24" fill="white" transform="translate(0 0.725098)"/>
</clipPath>
<clipPath id="clip2_11_1187">
<rect width="24" height="24" fill="white" transform="translate(0 0.725098)"/>
</clipPath>
</defs>
</svg>
