<svg width="24" height="25" viewBox="0 0 24 25" fill="none" xmlns="http://www.w3.org/2000/svg">
<path d="M19.971 3.7251H4.029C3.46275 3.7251 3 4.18785 3 4.7541V20.6968C3 21.2623 3.46275 21.7251 4.029 21.7251H19.9718C20.5373 21.7251 21 21.2623 21 20.6961V4.7541C21 4.18785 20.5373 3.7251 19.971 3.7251ZM18.2782 13.8216H15.8055V20.4388H13.2863V13.8216H11.5365V11.4388H13.2863C13.2863 11.4388 13.2863 10.4623 13.2863 9.4041C13.2863 7.8051 14.3197 6.3366 16.7017 6.3366C17.6662 6.3366 18.3787 6.42885 18.3787 6.42885L18.3225 8.6541C18.3225 8.6541 17.595 8.64735 16.8015 8.64735C15.9428 8.64735 15.8048 9.04335 15.8048 9.70035C15.8048 9.78135 15.8048 9.81135 15.8048 9.81135C15.8048 9.9951 15.8048 10.4428 15.8048 11.4396H18.3907L18.2782 13.8216Z" fill="#1C2751"/>
</svg>
