<svg width="24" height="24" viewBox="0 0 24 24" fill="none" xmlns="http://www.w3.org/2000/svg">
<g clip-path="url(#clip0_11_1196)">
<g clip-path="url(#clip1_11_1196)">
<g clip-path="url(#clip2_11_1196)">
<path fill-rule="evenodd" clip-rule="evenodd" d="M18.3389 18.338H15.6694V14.1605C15.6694 13.1645 15.6524 11.883 14.2823 11.883C12.8928 11.883 12.6808 12.9685 12.6808 14.0895V18.338H10.0142V9.748H12.5733V10.9225H12.6103C12.9663 10.247 13.8373 9.535 15.1358 9.535C17.8394 9.535 18.3389 11.3135 18.3389 13.627V18.338ZM7.00411 8.5745C6.14659 8.5745 5.45507 7.881 5.45507 7.026C5.45507 6.1715 6.14659 5.478 7.00411 5.478C7.85813 5.478 8.55115 6.1715 8.55115 7.026C8.55115 7.881 7.85813 8.5745 7.00411 8.5745ZM5.66707 18.338H8.33965V9.748H5.66707V18.338ZM19.6685 3H4.32754C3.59502 3 3 3.581 3 4.298V19.701C3 20.418 3.59502 21 4.32754 21H19.6685C20.4025 21 21 20.418 21 19.701V4.298C21 3.581 20.4025 3 19.6685 3Z" fill="#1C2751"/>
</g>
</g>
</g>
<defs>
<clipPath id="clip0_11_1196">
<rect width="24" height="24" fill="white"/>
</clipPath>
<clipPath id="clip1_11_1196">
<rect width="24" height="24" fill="white"/>
</clipPath>
<clipPath id="clip2_11_1196">
<rect width="24" height="24" fill="white"/>
</clipPath>
</defs>
</svg>
