<svg width="20" height="31" viewBox="0 0 20 31" fill="none" xmlns="http://www.w3.org/2000/svg">
<path d="M9.95229 0C4.64334 0 0.323975 4.52988 0.323975 10.0976C0.323975 11.769 0.722439 13.4262 1.47993 14.8961L9.42577 29.9673C9.53154 30.1682 9.73312 30.2927 9.95229 30.2927C10.1715 30.2927 10.373 30.1682 10.4788 29.9673L18.4276 14.8912C19.1821 13.4262 19.5806 11.7689 19.5806 10.0975C19.5806 4.52988 15.2612 0 9.95229 0ZM9.95229 15.1463C7.29782 15.1463 5.13816 12.8814 5.13816 10.0976C5.13816 7.31373 7.29782 5.04882 9.95229 5.04882C12.6068 5.04882 14.7664 7.31373 14.7664 10.0976C14.7664 12.8814 12.6068 15.1463 9.95229 15.1463Z" fill="#1C2751"/>
</svg>
