<svg width="17" height="19" viewBox="0 0 17 19" fill="none" xmlns="http://www.w3.org/2000/svg">
<path d="M13.3193 7.11228C13.3193 6.872 13.3081 6.63573 13.2856 6.40346C13.2632 6.17119 13.2295 5.94292 13.1846 5.71866C13.1396 5.47838 13.0872 5.25011 13.0273 5.03386C12.9674 4.81761 12.8926 4.59735 12.8027 4.37309C12.7279 4.16485 12.638 3.96061 12.5332 3.76038C12.4284 3.56015 12.3161 3.36392 12.1963 3.17169C12.0765 2.97947 11.9455 2.79125 11.8032 2.60704C11.661 2.42282 11.515 2.25062 11.3652 2.09044V2.06641C11.2155 1.90622 11.0545 1.75404 10.8823 1.60987C10.7101 1.46571 10.5342 1.32154 10.3545 1.17737C10.1748 1.04922 9.98763 0.933088 9.79297 0.828966C9.59831 0.724844 9.40365 0.624727 9.20898 0.528616C8.99935 0.448523 8.79346 0.372435 8.59131 0.30035C8.38916 0.228266 8.18327 0.176207 7.97363 0.144169C7.74902 0.0961132 7.52816 0.0600719 7.31104 0.0360432C7.09391 0.0120144 6.87305 0 6.64844 0C6.42383 0 6.20296 0.0120144 5.98584 0.0360432C5.76872 0.0600719 5.55534 0.0961132 5.3457 0.144169C5.13607 0.176207 4.92643 0.228266 4.7168 0.30035C4.50716 0.372435 4.30501 0.448523 4.11035 0.528616C3.90072 0.624727 3.70231 0.724844 3.51514 0.828966C3.32796 0.933088 3.14453 1.04922 2.96484 1.17737C2.78516 1.32154 2.60921 1.46571 2.43701 1.60987C2.26481 1.75404 2.10384 1.90622 1.9541 2.06641L1.93164 2.09044C1.7819 2.25062 1.63965 2.42282 1.50488 2.60704C1.37012 2.79125 1.24284 2.97947 1.12305 3.17169C0.988281 3.36392 0.872233 3.56015 0.774902 3.76038C0.677572 3.96061 0.583984 4.16485 0.494141 4.37309C0.419271 4.59735 0.348145 4.81761 0.280762 5.03386C0.213379 5.25011 0.157227 5.47037 0.112305 5.69463V5.71866C0.0673828 5.94292 0.0374349 6.17119 0.0224609 6.40346C0.00748698 6.63573 0 6.872 0 7.11228C0 7.33654 0.00748698 7.56481 0.0224609 7.79708C0.0374349 8.02935 0.0673828 8.26562 0.112305 8.50591C0.157227 8.73017 0.213379 8.95443 0.280762 9.17869C0.348145 9.40295 0.419271 9.6192 0.494141 9.82744C0.583984 10.0357 0.677572 10.2439 0.774902 10.4522C0.872233 10.6604 0.980794 10.8606 1.10059 11.0529C1.23535 11.2451 1.37012 11.4293 1.50488 11.6055C1.63965 11.7817 1.78939 11.9579 1.9541 12.1341C2.10384 12.2943 2.26481 12.4505 2.43701 12.6027C2.60921 12.7549 2.78516 12.895 2.96484 13.0232C3.14453 13.1513 3.32796 13.2715 3.51514 13.3836C3.70231 13.4957 3.90072 13.5918 4.11035 13.6719C4.30501 13.768 4.50716 13.8481 4.7168 13.9122C4.92643 13.9763 5.13607 14.0323 5.3457 14.0804C5.55534 14.1285 5.76872 14.1605 5.98584 14.1765C6.20296 14.1925 6.42383 14.2005 6.64844 14.2005C6.8431 14.2005 7.03402 14.1925 7.22119 14.1765C7.40837 14.1605 7.5918 14.1365 7.77148 14.1044C7.96615 14.0724 8.15332 14.0323 8.33301 13.9843C8.5127 13.9362 8.69238 13.8802 8.87207 13.8161C9.03678 13.752 9.20524 13.6799 9.37744 13.5998C9.54964 13.5197 9.7181 13.4316 9.88281 13.3355C9.98763 13.2715 10.085 13.2074 10.1748 13.1433C10.2646 13.0792 10.3545 13.0152 10.4443 12.9511L15.0488 18.2853C15.0938 18.3494 15.1424 18.4014 15.1948 18.4415C15.2472 18.4815 15.3034 18.5096 15.3633 18.5256C15.4232 18.5576 15.4793 18.5776 15.5317 18.5856C15.5841 18.5937 15.6403 18.5977 15.7002 18.5977C15.7601 18.5977 15.8125 18.5937 15.8574 18.5856C15.9023 18.5776 15.9548 18.5656 16.0146 18.5496C16.0745 18.5336 16.1307 18.5055 16.1831 18.4655C16.2355 18.4255 16.2842 18.3894 16.3291 18.3574C16.4189 18.2613 16.4863 18.1571 16.5312 18.045C16.5762 17.9329 16.5986 17.8047 16.5986 17.6606C16.5986 17.5484 16.5799 17.4323 16.5425 17.3122C16.505 17.192 16.4489 17.0839 16.374 16.9878L11.792 11.6536C11.8669 11.5414 11.9455 11.4253 12.0278 11.3052C12.1102 11.185 12.1888 11.0689 12.2637 10.9568C12.3685 10.7645 12.4696 10.5683 12.5669 10.3681C12.6642 10.1678 12.7578 9.9636 12.8477 9.75536C12.9225 9.54712 12.9899 9.33487 13.0498 9.11862C13.1097 8.90237 13.1546 8.68211 13.1846 8.45785C13.2295 8.23359 13.2632 8.00933 13.2856 7.78507C13.3081 7.5608 13.3193 7.33654 13.3193 7.11228ZM10.085 10.7645C9.86035 11.0048 9.62077 11.2171 9.36621 11.4013C9.11165 11.5855 8.83464 11.7497 8.53516 11.8939C8.25065 12.022 7.95117 12.1221 7.63672 12.1942C7.32227 12.2663 6.99284 12.3023 6.64844 12.3023C6.31901 12.3023 5.99707 12.2663 5.68262 12.1942C5.36816 12.1221 5.0612 12.022 4.76172 11.8939C4.46224 11.7497 4.18522 11.5855 3.93066 11.4013C3.67611 11.2171 3.43652 11.0048 3.21191 10.7645C2.9873 10.5403 2.7889 10.288 2.6167 10.0077C2.4445 9.72733 2.29102 9.42698 2.15625 9.1066C2.03646 8.80225 1.94661 8.48188 1.88672 8.14548C1.82682 7.80909 1.79688 7.46469 1.79688 7.11228C1.79688 6.74385 1.82682 6.39545 1.88672 6.06707C1.94661 5.73868 2.03646 5.4143 2.15625 5.09393C2.29102 4.77356 2.4445 4.47721 2.6167 4.2049C2.7889 3.93258 2.9873 3.67628 3.21191 3.436C3.43652 3.21174 3.67611 3.0075 3.93066 2.82329C4.18522 2.63907 4.46224 2.47488 4.76172 2.33072C5.0612 2.20257 5.36816 2.10245 5.68262 2.03036C5.99707 1.95828 6.31901 1.92224 6.64844 1.92224C6.99284 1.92224 7.32227 1.95828 7.63672 2.03036C7.95117 2.10245 8.25065 2.20257 8.53516 2.33072C8.83464 2.47488 9.11165 2.63907 9.36621 2.82329C9.62077 3.0075 9.86035 3.21174 10.085 3.436C10.3096 3.67628 10.508 3.93258 10.6802 4.2049C10.8524 4.47721 11.0059 4.77356 11.1406 5.09393C11.2604 5.4143 11.354 5.73868 11.4214 6.06707C11.4888 6.39545 11.5225 6.74385 11.5225 7.11228C11.5225 7.46469 11.4888 7.80909 11.4214 8.14548C11.354 8.48188 11.2604 8.80225 11.1406 9.1066C11.0059 9.42698 10.8524 9.72733 10.6802 10.0077C10.508 10.288 10.3096 10.5403 10.085 10.7645Z" fill="white"/>
</svg>
