<svg width="24" height="25" viewBox="0 0 24 25" fill="none" xmlns="http://www.w3.org/2000/svg">
<g clip-path="url(#clip0_11_1167)">
<g clip-path="url(#clip1_11_1167)">
<g clip-path="url(#clip2_11_1167)">
<path d="M23.25 5.1396C22.422 5.50635 21.5325 5.7546 20.5988 5.86635C21.5513 5.29485 22.2832 4.39035 22.6283 3.31185C21.7365 3.8406 20.7488 4.22535 19.6973 4.4316C18.855 3.53535 17.655 2.9751 16.3275 2.9751C13.7783 2.9751 11.712 5.04135 11.712 7.59135C11.712 7.9536 11.7533 8.30535 11.8312 8.6436C7.99425 8.45085 4.593 6.6126 2.316 3.8196C1.9185 4.50135 1.69125 5.29485 1.69125 6.14085C1.69125 7.7421 2.5065 9.1551 3.74475 9.98235C2.98875 9.9591 2.27625 9.75135 1.65375 9.4056C1.65375 9.42435 1.65375 9.44385 1.65375 9.46335C1.65375 11.6998 3.24525 13.5658 5.3565 13.9896C4.9695 14.0953 4.5615 14.1516 4.14075 14.1516C3.843 14.1516 3.55425 14.1223 3.27225 14.0683C3.8595 15.9021 5.5635 17.2371 7.584 17.2746C6.00375 18.5128 4.014 19.2508 1.851 19.2508C1.47825 19.2508 1.11075 19.2291 0.75 19.1863C2.793 20.4958 5.22 21.2601 7.82625 21.2601C16.317 21.2601 20.9603 14.2258 20.9603 8.1261C20.9603 7.9266 20.955 7.7271 20.9468 7.5291C21.8483 6.8781 22.6313 6.0651 23.25 5.1396Z" fill="#1C2751"/>
</g>
</g>
</g>
<defs>
<clipPath id="clip0_11_1167">
<rect width="24" height="24" fill="white" transform="translate(0 0.725098)"/>
</clipPath>
<clipPath id="clip1_11_1167">
<rect width="24" height="24" fill="white" transform="translate(0 0.725098)"/>
</clipPath>
<clipPath id="clip2_11_1167">
<rect width="24" height="24" fill="white" transform="translate(0 0.725098)"/>
</clipPath>
</defs>
</svg>
